<?xml version="1.0" encoding="iso-8859-1"?>
<!-- Uploaded to: SVG Repo, www.svgrepo.com, Generator: SVG Repo Mixer Tools -->
<svg height="800px" width="800px" version="1.1" id="Layer_1" xmlns="http://www.w3.org/2000/svg" xmlns:xlink="http://www.w3.org/1999/xlink" 
	 viewBox="0 0 506.667 506.667" xml:space="preserve">
<g transform="translate(0 -1004.36)" shape-rendering="auto" image-rendering="auto" color-rendering="auto" color-interpolation="sRGB">
	<path style="fill:#3B322E;" d="M253.333,1004.38L253.333,1004.38c-21.996,0-40,18.003-40,40c0,4.592,0.853,9.078,2.375,13.333
		h-26.334c-4.418,0.001-8,3.582-8,8v37.084c-82.923,30.149-138.593,108.928-138.708,197.563
		c0,116.253,94.414,210.667,210.667,210.667c116.254,0,210.667-94.414,210.667-210.667
		c-0.107-88.622-55.718-167.437-138.625-197.626v-37.021c0-4.418-3.582-7.999-8-8h-26.437c1.52-4.264,2.39-8.753,2.396-13.354
		c0-21.997-18.003-40-40-40L253.333,1004.38z M253.333,1020.422c13.35,0,24,10.65,24,24c-0.011,4.924-2.33,9.335-5.124,13.333
		h-37.75c-2.803-4.002-5.115-8.421-5.125-13.355C229.333,1031.06,239.991,1020.422,253.333,1020.422z"/>
	<path style="fill:#FCD116;" d="M197.375,1073.755h112v26.645h-112V1073.755z"/>
	<path style="fill:deeppink;" d="M190.959,1116.422h124.958c78.859,26.807,132.007,100.641,132.083,183.999
		c0,107.607-87.06,194.667-194.667,194.667c-107.605,0-194.667-87.06-194.667-194.667
		C58.773,1217.005,112.014,1143.154,190.959,1116.422L190.959,1116.422z"/>
	<path style="fill:#CAA712;" d="M290.042,1073.755v26.645h19.333v-26.645H290.042z"/>
	<path style="fill:	purple;" d="M296.583,1116.422c78.859,26.807,131.977,100.641,132.083,183.999
		c0,104.343-81.925,189.125-184.999,194.188c3.225,0.16,6.402,0.48,9.666,0.48c107.606,0,194.667-87.06,194.667-194.667
		c-0.107-83.359-53.225-157.193-132.083-184L296.583,1116.422L296.583,1116.422z"/>
</g>
</svg>