<?xml version="1.0" encoding="utf-8"?>
<!-- Uploaded to: SVG Repo, www.svgrepo.com, Generator: SVG Repo Mixer Tools -->
<svg width="800px" height="800px" viewBox="0 0 1024 1024" class="icon"  version="1.1" xmlns="http://www.w3.org/2000/svg"><path d="M816.219022 209.157689c1.8432 0.466489 3.675022 0.932978 5.495467 1.422222a136.942933 136.942933 0 0 1 91.875555 80.2816l3.549867 8.556089a170.427733 170.427733 0 0 1 3.128889 122.129067l-26.282667-5.279289v-0.022756l-181.532444-36.5568-11.753245-70.087111-7.930311-47.286044c-52.246756-14.518044-118.089956-21.765689-183.899022-21.765689-65.831822 0-131.675022 7.247644-183.9104 21.765689l-7.930311 47.3088-11.776 70.064355-181.509689 36.5568-26.294044 5.302045a170.552889 170.552889 0 0 1 3.140266-122.129067l3.538489-8.556089a136.942933 136.942933 0 0 1 91.875556-80.2816c1.820444-0.489244 3.675022-0.955733 5.518222-1.422222 186.732089-47.536356 427.986489-47.536356 614.695822 0z" fill="#d85798" /><path d="M816.833422 767.772444l-37.944889-288.392533a39.901867 39.901867 0 0 0-31.061333-33.848889l-56.684089-12.196978a39.867733 39.867733 0 0 1-30.958933-33.029688l-4.926578-32.267378a39.799467 39.799467 0 0 0-39.253333-33.917156h-214.254934a39.799467 39.799467 0 0 0-39.253333 33.905778l-4.926578 32.290133a39.856356 39.856356 0 0 1-30.947555 33.018311l-56.695467 12.208356a39.856356 39.856356 0 0 0-31.061333 33.848889l-37.933511 288.3584 615.901866 0.022755z" fill="#d85798" /><path d="M258.8672 767.749689l37.933511-288.3584a39.856356 39.856356 0 0 1 31.061333-33.848889l56.695467-12.196978a39.867733 39.867733 0 0 0 30.947556-33.029689l4.926577-32.290133a39.799467 39.799467 0 0 1 39.253334-33.905778h-57.947022a39.799467 39.799467 0 0 0-39.253334 33.905778l-4.926578 32.290133a39.879111 39.879111 0 0 1-30.947555 33.029689l-56.695467 12.196978a39.867733 39.867733 0 0 0-31.061333 33.848889l-37.933511 288.3584h57.947022z" fill="#d85798" /><path d="M856.553244 843.787378h-695.352888l6.667377-76.037689h682.018134z" fill="#d85798" /><path d="M167.867733 767.749689l-6.667377 76.037689h71.7824l6.667377-76.037689z" fill="#d85798" /><path d="M374.089956 563.495822a135.714133 134.792533 90 1 0 269.585066 0 135.714133 134.792533 90 1 0-269.585066 0Z" fill="#FFFFFF" /><path d="M469.105778 563.495822a40.0384 39.776711 90 1 0 79.553422 0 40.0384 39.776711 90 1 0-79.553422 0Z" fill="#d85798" /><path d="M930.827378 293.6832l-3.549867-8.556089c-18.136178-43.815822-56.194844-77.073067-101.762844-88.962844a1049.486222 1049.486222 0 0 0-79.041423-17.282845 14.825244 14.825244 0 0 0-17.180444 12.071822 14.904889 14.904889 0 0 0 11.9808 17.3056 1021.496889 1021.496889 0 0 1 71.361422 15.394134c1.786311 0.455111 3.549867 0.898844 5.381689 1.388089 36.716089 9.580089 67.333689 36.340622 81.92 71.588977l3.538489 8.556089c4.494222 10.808889 7.668622 22.004622 9.602844 33.348267l-199.509333-41.961244-6.155378-36.716089a14.870756 14.870756 0 0 0-10.672355-11.889778c-51.780267-14.381511-118.488178-22.300444-187.847111-22.300445-69.381689 0-136.0896 7.918933-187.847111 22.300445a14.870756 14.870756 0 0 0-10.672356 11.889778l-6.166756 36.704711-51.0976 10.740622a14.927644 14.927644 0 0 0-11.480177 17.658311 14.848 14.848 0 0 0 17.533155 11.548445l39.742578-8.362667-6.542222 38.946133-184.740978 37.205334a155.192889 155.192889 0 0 1-5.063111-34.861512l98.030933-20.616533a14.916267 14.916267 0 0 0 11.480178-17.646933 14.825244 14.825244 0 0 0-17.533156-11.559822l-89.838933 18.898488c1.934222-11.343644 5.108622-22.528 9.580089-33.336888l3.549867-8.556089a122.766222 122.766222 0 0 1 81.976889-71.600356c1.695289-0.455111 3.413333-0.887467 5.142755-1.319822l0.227556-0.056889c142.711467-36.340622 317.451378-45.124267 479.391289-24.120889a14.802489 14.802489 0 0 0 16.577422-12.891022 14.882133 14.882133 0 0 0-12.788622-16.702578c-165.501156-21.469867-344.246044-12.447289-490.5984 24.826311-1.854578 0.466489-3.697778 0.932978-5.449956 1.399467-45.636267 11.912533-83.694933 45.181156-101.831111 88.996978l-3.549867 8.556089a185.161956 185.161956 0 0 0-3.413333 132.881066 14.791111 14.791111 0 0 0 16.861867 9.614222l207.803733-41.858844a14.859378 14.859378 0 0 0 11.696355-12.140089l18.113423-107.895467c47.900444-12.151467 108.123022-18.807467 170.894222-18.807466 62.737067 0 122.959644 6.656 170.882844 18.818844l18.102045 107.884089c1.024 6.098489 5.666133 10.934044 11.696355 12.140089l180.770134 36.397511c0.238933 0.068267 0.512 0.125156 0.773689 0.182045l26.271288 5.279288a14.848 14.848 0 0 0 16.873245-9.6256 185.252978 185.252978 0 0 0-3.424711-132.892444z m-33.166222 108.111644a7.998578 7.998578 0 0 0-0.750934-0.170666l-171.531378-34.542934-6.530844-38.946133 196.334933 41.289956a154.544356 154.544356 0 0 1-5.063111 34.861511l-12.458666-2.491734z" fill="" /><path d="M864.642844 766.441244a14.836622 14.836622 0 0 0-14.756977-13.596444h-20.081778l-11.138845-84.627911c-1.080889-8.180622-8.521956-13.915022-16.634311-12.834133s-13.824 8.578844-12.743111 16.748088l10.626845 80.713956h-582.087111l35.714844-271.485156a25.065244 25.065244 0 0 1 19.467378-21.219555l56.695466-12.196978c22.004622-4.733156 39.082667-22.960356 42.496-45.351822l4.926578-32.278756a24.803556 24.803556 0 0 1 24.598756-21.265066h214.266311a24.803556 24.803556 0 0 1 24.598755 21.265066l4.926578 32.267378c3.413333 22.391467 20.491378 40.618667 42.496 45.3632l56.684089 12.196978c10.262756 2.207289 18.090667 10.740622 19.478756 21.219555l18.6368 141.528178c1.069511 8.180622 8.533333 13.9264 16.622933 12.845511a14.904889 14.904889 0 0 0 12.743111-16.759466l-18.6368-141.539556a54.840889 54.840889 0 0 0-42.643911-46.466844l-56.684089-12.196978a25.110756 25.110756 0 0 1-19.410489-20.707556l-4.926578-32.267377c-4.107378-26.988089-26.783289-46.569244-53.885155-46.569245h-5.415822v-19.524267c0-8.237511-6.633244-14.916267-14.813867-14.916266-8.203378 0-14.825244 6.678756-14.825244 14.916266v19.524267h-144.156445v-19.524267c0-8.237511-6.633244-14.916267-14.813867-14.916266-8.192 0-14.825244 6.678756-14.825244 14.916266v19.524267h-5.415822c-27.113244 0-49.777778 19.581156-53.896534 46.557867l-4.926577 32.290133a25.110756 25.110756 0 0 1-19.399111 20.696178l-56.695467 12.208355a54.875022 54.875022 0 0 0-42.666667 46.466845l-36.226844 275.399111h-20.0704c-7.68 0-14.085689 5.905067-14.756978 13.607822l-6.667378 76.026311c-0.364089 4.175644 1.024 8.305778 3.834311 11.400534a14.791111 14.791111 0 0 0 10.922667 4.846933h111.0016c8.180622 0 14.813867-6.690133 14.813867-14.927644 0-8.248889-6.633244-14.927644-14.813867-14.927645h-94.8224l4.050489-46.205155h654.904889l4.039111 46.205155h-518.781156c-8.180622 0-14.813867 6.678756-14.813866 14.927645 0 8.237511 6.633244 14.927644 14.813866 14.927644h534.960356c4.152889 0 8.123733-1.763556 10.934044-4.846933 2.798933-3.083378 4.1984-7.224889 3.822934-11.400534l-6.644623-76.037689z" fill="" /><path d="M508.882489 412.8768c-82.488889 0-149.595022 67.561244-149.595022 150.619022 0 83.069156 67.106133 150.619022 149.595022 150.619022s149.6064-67.561244 149.6064-150.619022c-0.011378-83.0464-67.117511-150.619022-149.6064-150.619022z m0 271.416889c-66.139022 0-119.967289-54.192356-119.967289-120.797867 0-66.594133 53.816889-120.786489 119.967289-120.786489s119.967289 54.192356 119.967289 120.786489c0 66.605511-53.828267 120.797867-119.967289 120.797867z" fill="" /><path d="M508.882489 508.541156c-30.094222 0-54.5792 24.655644-54.5792 54.943288 0 30.3104 24.484978 54.954667 54.5792 54.954667 30.1056 0 54.590578-24.644267 54.590578-54.954667-0.011378-30.287644-24.496356-54.943289-54.590578-54.943288z m0 80.065422a25.053867 25.053867 0 0 1-24.940089-25.110756c0-13.858133 11.184356-25.122133 24.940089-25.122133s24.940089 11.264 24.940089 25.122133a25.053867 25.053867 0 0 1-24.940089 25.110756z" fill="" /></svg>