<?xml version="1.0" encoding="iso-8859-1"?>
<!-- Uploaded to: SVG Repo, www.svgrepo.com, Generator: SVG Repo Mixer Tools -->
<svg height="800px" width="800px" version="1.1" id="Layer_1" xmlns="http://www.w3.org/2000/svg" xmlns:xlink="http://www.w3.org/1999/xlink" 
	 viewBox="0 0 512 512" xml:space="preserve">
<path style="fill:#d85798;" d="M141.084,494.933c0,9.387,7.68,17.067,17.067,17.067h80.782c9.387,0,24.747,0,34.133,0h80.782
	c9.387,0,17.067-7.68,17.067-17.067c0-213.441,12.516-249.275,12.516-330.61c0-108.092-26.441-140.27-41.067-148.378
	C319.716,3.391,280.426,0,256,0s-63.716,3.391-86.364,15.946c-14.625,8.108-41.067,40.285-41.067,148.378
	C128.569,245.659,141.084,281.492,141.084,494.933z"/>
<g>
	<path style="fill:#C20C3F;" d="M210.338,379.605h-13.973c-4.714,0-8.533-3.82-8.533-8.533c0-4.714,3.82-8.533,8.533-8.533h13.973
		c4.714,0,8.533,3.82,8.533,8.533C218.871,375.785,215.051,379.605,210.338,379.605z"/>
	<path style="fill:#C20C3F;" d="M315.635,379.605h-13.973c-4.714,0-8.533-3.82-8.533-8.533c0-4.714,3.82-8.533,8.533-8.533h13.973
		c4.714,0,8.533,3.82,8.533,8.533C324.169,375.785,320.349,379.605,315.635,379.605z"/>
	<path style="fill:#C20C3F;" d="M210.338,418.664h-13.973c-4.714,0-8.533-3.82-8.533-8.533s3.82-8.533,8.533-8.533h13.973
		c4.714,0,8.533,3.82,8.533,8.533S215.051,418.664,210.338,418.664z"/>
	<path style="fill:#C20C3F;" d="M315.635,418.664h-13.973c-4.714,0-8.533-3.82-8.533-8.533s3.82-8.533,8.533-8.533h13.973
		c4.714,0,8.533,3.82,8.533,8.533S320.349,418.664,315.635,418.664z"/>
	<path style="fill:#C20C3F;" d="M210.338,457.722h-13.973c-4.714,0-8.533-3.82-8.533-8.533c0-4.714,3.82-8.533,8.533-8.533h13.973
		c4.714,0,8.533,3.82,8.533,8.533C218.871,453.903,215.051,457.722,210.338,457.722z"/>
	<path style="fill:#C20C3F;" d="M262.987,384.126h-13.973c-4.714,0-8.533-3.819-8.533-8.533c0-4.714,3.82-8.533,8.533-8.533h13.973
		c4.714,0,8.533,3.82,8.533,8.533C271.52,380.307,267.7,384.126,262.987,384.126z"/>
	<path style="fill:#C20C3F;" d="M262.987,423.185h-13.973c-4.714,0-8.533-3.82-8.533-8.533c0-4.714,3.82-8.533,8.533-8.533h13.973
		c4.714,0,8.533,3.82,8.533,8.533C271.52,419.366,267.7,423.185,262.987,423.185z"/>
	<path style="fill:#C20C3F;" d="M262.987,462.244h-13.973c-4.714,0-8.533-3.82-8.533-8.533c0-4.714,3.82-8.533,8.533-8.533h13.973
		c4.714,0,8.533,3.82,8.533,8.533C271.52,458.424,267.7,462.244,262.987,462.244z"/>
	<path style="fill:#C20C3F;" d="M315.635,457.722h-13.973c-4.714,0-8.533-3.82-8.533-8.533c0-4.714,3.82-8.533,8.533-8.533h13.973
		c4.714,0,8.533,3.82,8.533,8.533C324.169,453.903,320.349,457.722,315.635,457.722z"/>
</g>
<path style="fill:#FAFAFA;" d="M337.92,253.085c0,3.129-2.56,5.689-5.689,5.689H179.769c-3.129,0-5.689-2.56-5.689-5.689V139.307
	c0-3.129,2.56-5.689,5.689-5.689h152.462c3.129,0,5.689,2.56,5.689,5.689V253.085z"/>
<g>
	<path style="fill:#C20C3F;" d="M256,95.192c-11.788,0-23.881-2.33-34.967-6.738c-4.379-1.742-6.518-6.704-4.776-11.083
		c1.742-4.379,6.707-6.515,11.083-4.776c9.099,3.619,19.01,5.531,28.661,5.531c9.651,0,19.562-1.913,28.661-5.531
		c4.383-1.74,9.341,0.399,11.083,4.776c1.741,4.38-0.398,9.341-4.776,11.083C279.881,92.862,267.789,95.192,256,95.192z"/>
	<path style="fill:#C20C3F;" d="M256,61.985c-11.787,0-23.879-2.33-34.967-6.739c-4.379-1.742-6.518-6.704-4.776-11.083
		s6.707-6.515,11.083-4.776c9.101,3.619,19.012,5.532,28.661,5.532c9.648,0,19.56-1.914,28.661-5.532
		c4.383-1.741,9.341,0.399,11.083,4.776c1.741,4.38-0.398,9.341-4.776,11.083C279.879,59.655,267.787,61.985,256,61.985z"/>
</g>
<path style="fill:#750C20;" d="M295.935,308.71c0,9.94-17.88,28.228-39.935,28.228s-39.935-18.289-39.935-28.228
	c0-9.94,5.275-14.929,39.935-14.929S295.935,298.769,295.935,308.71z"/>
</svg>