<?xml version="1.0" encoding="iso-8859-1"?>
<!-- Generator: Adobe Illustrator 19.0.0, SVG Export Plug-In . SVG Version: 6.00 Build 0)  -->
<svg version="1.1" id="Layer_1" xmlns="http://www.w3.org/2000/svg" xmlns:xlink="http://www.w3.org/1999/xlink" x="0px" y="0px"
	 viewBox="0 0 512 512" style="enable-background:new 0 0 512 512;" xml:space="preserve">
<path style="fill:#72C6EF;" d="M303.081,162.909h-94.161c-3.468,10.287-7.308,19.153-11.101,25.111
	c-19.444,30.511-23.273,46.068-23.273,102.889v209.455h162.909V290.909c0-56.82-3.828-72.378-23.273-102.889
	C310.377,182.063,306.548,173.196,303.081,162.909z"/>
<rect x="174.545" y="314.182" style="fill:#FFFFFF;" width="162.909" height="93.091"/>
<rect x="221.091" y="11.636" style="fill:#FAA85F;" width="69.818" height="34.909"/>
<path style="fill:#00384E;" d="M323.991,181.76c-10.135-15.919-21.446-56.239-21.446-88.669V11.636
	C302.545,5.213,297.344,0,290.909,0h-69.818c-6.435,0-11.636,5.213-11.636,11.636v81.455c0,32.431-11.311,72.751-21.457,88.681
	c-20.864,32.756-25.088,51.119-25.088,109.137v209.455c0,6.435,5.201,11.636,11.636,11.636h162.909
	c6.435,0,11.636-5.201,11.636-11.636V290.909C349.091,232.89,344.867,214.528,323.991,181.76z M232.727,23.273h46.545v11.636
	h-46.545V23.273z M325.818,488.727H186.182v-69.818h139.636V488.727z M325.818,395.636H186.182v-69.818h139.636V395.636z
	 M325.818,302.545H186.182v-11.636c0-57.169,4.073-69.353,21.446-96.64c12.079-18.932,25.1-62.999,25.1-101.178V58.182h46.545
	v34.909c0,38.179,13.021,82.246,25.088,101.178c17.385,27.287,21.457,39.471,21.457,96.64V302.545z"/>
<path style="fill:#FFFFFF;" d="M290.909,162.909h-69.585c6.633-20.713,11.52-46.429,11.52-69.818V58.182h46.545v34.909
	C279.389,116.48,284.276,142.196,290.909,162.909z"/>
<g>
</g>
<g>
</g>
<g>
</g>
<g>
</g>
<g>
</g>
<g>
</g>
<g>
</g>
<g>
</g>
<g>
</g>
<g>
</g>
<g>
</g>
<g>
</g>
<g>
</g>
<g>
</g>
<g>
</g>
</svg>
