<?xml version="1.0" encoding="iso-8859-1"?>
<!-- Generator: Adobe Illustrator 19.0.0, SVG Export Plug-In . SVG Version: 6.00 Build 0)  -->
<svg version="1.1" id="Layer_1" xmlns="http://www.w3.org/2000/svg" xmlns:xlink="http://www.w3.org/1999/xlink" x="0px" y="0px"
	 viewBox="0 0 511.992 511.992" style="enable-background:new 0 0 511.992 511.992;" xml:space="preserve">
<rect x="63.997" y="0" style="fill:#ED5564;" width="384" height="511.99"/>
<g>
	<path style="fill:#DA4453;" d="M394.654,0c0,5.89,4.781,10.656,10.688,10.656c5.875,0,10.656-4.766,10.656-10.656
		C415.998,0,394.654,0,394.654,0z"/>
	<path style="fill:#DA4453;" d="M362.654,10.656c5.906,0,10.688-4.766,10.688-10.656h-21.344
		C351.999,5.891,356.779,10.656,362.654,10.656z"/>
	<path style="fill:#DA4453;" d="M319.999,10.656c5.906,0,10.656-4.766,10.656-10.656h-21.311
		C309.344,5.891,314.125,10.656,319.999,10.656z"/>
	<path style="fill:#DA4453;" d="M277.344,10.656C283.219,10.656,288,5.89,288,0h-21.336C266.664,5.891,271.43,10.656,277.344,10.656
		z"/>
	<path style="fill:#DA4453;" d="M234.665,10.656c5.891,0,10.672-4.766,10.672-10.656h-21.343
		C223.993,5.891,228.775,10.656,234.665,10.656z"/>
	<path style="fill:#DA4453;" d="M191.995,10.656c5.906,0,10.671-4.766,10.671-10.656h-21.328
		C181.338,5.891,186.12,10.656,191.995,10.656z"/>
	<path style="fill:#DA4453;" d="M149.339,10.656c5.875,0,10.656-4.766,10.656-10.656h-21.328
		C138.667,5.891,143.433,10.656,149.339,10.656z"/>
	<path style="fill:#DA4453;" d="M106.668,10.656c5.891,0,10.671-4.766,10.671-10.656H95.996
		C95.996,5.891,100.777,10.656,106.668,10.656z"/>
	<path style="fill:#DA4453;" d="M117.339,511.992c0-5.891-4.781-10.672-10.671-10.672s-10.672,4.781-10.672,10.672H117.339z"/>
	<path style="fill:#DA4453;" d="M149.339,501.32c-5.906,0-10.671,4.781-10.671,10.672h21.328
		C159.995,506.101,155.214,501.32,149.339,501.32z"/>
	<path style="fill:#DA4453;" d="M191.995,501.32c-5.875,0-10.656,4.781-10.656,10.672h21.328
		C202.666,506.101,197.901,501.32,191.995,501.32z"/>
	<path style="fill:#DA4453;" d="M234.665,501.32c-5.89,0-10.671,4.781-10.671,10.672h21.343
		C245.337,506.101,240.556,501.32,234.665,501.32z"/>
	<path style="fill:#DA4453;" d="M277.344,501.32c-5.914,0-10.68,4.781-10.68,10.672H288C288,506.101,283.219,501.32,277.344,501.32z
		"/>
	<path style="fill:#DA4453;" d="M319.999,501.32c-5.873,0-10.654,4.781-10.654,10.672h21.311
		C330.654,506.101,325.904,501.32,319.999,501.32z"/>
	<path style="fill:#DA4453;" d="M362.654,501.32c-5.875,0-10.656,4.781-10.656,10.672h21.344
		C373.342,506.101,368.56,501.32,362.654,501.32z"/>
	<path style="fill:#DA4453;" d="M405.342,501.32c-5.906,0-10.688,4.781-10.688,10.672h21.344
		C415.999,506.101,411.217,501.32,405.342,501.32z"/>
	<path style="fill:#DA4453;" d="M437.34,447.992c0,5.891,4.75,10.656,10.656,10.656V437.32
		C442.09,437.32,437.34,442.101,437.34,447.992z"/>
	<path style="fill:#DA4453;" d="M437.34,405.322c0,5.891,4.75,10.672,10.656,10.672V394.65
		C442.09,394.65,437.34,399.432,437.34,405.322z"/>
	<path style="fill:#DA4453;" d="M437.34,362.65c0,5.891,4.75,10.672,10.656,10.672v-21.328
		C442.09,351.994,437.34,356.76,437.34,362.65z"/>
	<path style="fill:#DA4453;" d="M437.34,319.994c0,5.891,4.75,10.656,10.656,10.656v-21.328
		C442.09,309.322,437.34,314.103,437.34,319.994z"/>
	<path style="fill:#DA4453;" d="M437.34,277.324c0,5.891,4.75,10.672,10.656,10.672v-21.344
		C442.09,266.652,437.34,271.434,437.34,277.324z"/>
	<path style="fill:#DA4453;" d="M437.34,234.652c0,5.891,4.75,10.671,10.656,10.671v-21.327
		C442.09,223.996,437.34,228.762,437.34,234.652z"/>
	<path style="fill:#DA4453;" d="M437.34,191.996c0,5.891,4.75,10.656,10.656,10.656v-21.328
		C442.09,181.325,437.34,186.106,437.34,191.996z"/>
	<path style="fill:#DA4453;" d="M437.34,149.326c0,5.891,4.75,10.672,10.656,10.672v-21.344
		C442.09,138.654,437.34,143.435,437.34,149.326z"/>
	<path style="fill:#DA4453;" d="M437.34,106.655c0,5.891,4.75,10.671,10.656,10.671V95.998
		C442.09,95.998,437.34,100.764,437.34,106.655z"/>
	<path style="fill:#DA4453;" d="M437.34,63.999c0,5.891,4.75,10.656,10.656,10.656V53.328
		C442.09,53.328,437.34,58.093,437.34,63.999z"/>
	<path style="fill:#DA4453;" d="M74.668,63.999c0-5.906-4.766-10.671-10.672-10.671v21.327
		C69.903,74.655,74.668,69.89,74.668,63.999z"/>
	<path style="fill:#DA4453;" d="M74.668,106.655c0-5.891-4.766-10.656-10.672-10.656v21.328
		C69.903,117.326,74.668,112.545,74.668,106.655z"/>
	<path style="fill:#DA4453;" d="M74.668,149.326c0-5.891-4.766-10.672-10.672-10.672v21.344
		C69.903,159.997,74.668,155.216,74.668,149.326z"/>
	<path style="fill:#DA4453;" d="M74.668,191.996c0-5.89-4.766-10.671-10.672-10.671v21.328
		C69.903,202.653,74.668,197.887,74.668,191.996z"/>
	<path style="fill:#DA4453;" d="M74.668,234.652c0-5.89-4.765-10.656-10.671-10.656v21.327
		C69.903,245.324,74.668,240.543,74.668,234.652z"/>
	<path style="fill:#DA4453;" d="M74.668,277.324c0-5.891-4.766-10.672-10.672-10.672v21.344
		C69.903,287.996,74.668,283.215,74.668,277.324z"/>
	<path style="fill:#DA4453;" d="M74.668,319.994c0-5.891-4.766-10.672-10.672-10.672v21.328
		C69.903,330.65,74.668,325.885,74.668,319.994z"/>
	<path style="fill:#DA4453;" d="M74.668,362.65c0-5.891-4.766-10.656-10.672-10.656v21.328
		C69.903,373.322,74.668,368.541,74.668,362.65z"/>
	<path style="fill:#DA4453;" d="M74.668,405.322c0-5.891-4.766-10.672-10.672-10.672v21.344
		C69.903,415.994,74.668,411.213,74.668,405.322z"/>
	<path style="fill:#DA4453;" d="M74.668,447.992c0-5.891-4.766-10.672-10.672-10.672v21.328
		C69.903,458.648,74.668,453.883,74.668,447.992z"/>
</g>
<rect x="95.997" y="31.996" style="fill:#FFCE54;" width="320" height="447.99"/>
<path style="fill:#FC6E51;" d="M319.999,74.655H191.995c-29.406,0-53.327,23.922-53.327,53.343v255.996
	c0,29.406,23.921,53.326,53.327,53.326h128.004c29.406,0,53.344-23.92,53.344-53.326V127.998
	C373.342,98.577,349.404,74.655,319.999,74.655z"/>
<g>
	<path style="fill:#E9573F;" d="M170.667,79.123v353.728c6.546,2.859,13.75,4.469,21.328,4.469V74.655
		C184.416,74.655,177.213,76.264,170.667,79.123z"/>
	<path style="fill:#E9573F;" d="M245.337,74.655v135.107c0,7.859,4.781,14.219,10.656,14.219c5.906,0,10.671-6.359,10.671-14.219
		V74.655H245.337z"/>
	<path style="fill:#E9573F;" d="M255.993,277.324c-5.875,0-10.656,4.781-10.656,10.672V437.32h21.328V287.996
		C266.664,282.105,261.898,277.324,255.993,277.324z"/>
	<path style="fill:#E9573F;" d="M341.342,432.851V79.123c-6.531-2.859-13.75-4.469-21.344-4.469V437.32
		C327.592,437.32,334.81,435.711,341.342,432.851z"/>
</g>
<path style="fill:#FFCE54;" d="M319.999,255.996c0,35.344-28.654,63.999-64.005,63.999c-35.343,0-63.999-28.654-63.999-63.999
	c0-35.358,28.656-63.999,63.999-63.999C291.344,191.996,319.999,220.637,319.999,255.996z"/>
<path style="fill:#ED5564;" d="M277.344,255.996c0,11.782-9.57,21.329-21.351,21.329c-11.781,0-21.328-9.547-21.328-21.329
	c0-11.796,9.547-21.343,21.328-21.343C267.773,234.652,277.344,244.199,277.344,255.996z"/>
<g>
</g>
<g>
</g>
<g>
</g>
<g>
</g>
<g>
</g>
<g>
</g>
<g>
</g>
<g>
</g>
<g>
</g>
<g>
</g>
<g>
</g>
<g>
</g>
<g>
</g>
<g>
</g>
<g>
</g>
</svg>
